<?xml version="1.0" encoding="utf-8"?>
<!-- Generator: Adobe Illustrator 19.0.1, SVG Export Plug-In . SVG Version: 6.00 Build 0)  -->
<svg version="1.1" id="Layer_1" xmlns="http://www.w3.org/2000/svg" xmlns:xlink="http://www.w3.org/1999/xlink" x="0px" y="0px"
	 viewBox="0 0 142.2 243.7" style="enable-background:new 0 0 142.2 243.7;" xml:space="preserve">
<style type="text/css">
	.st0{fill:#231F20;}
	.st1{fill:#0AA5DE;}
	.st2{fill:#40BEB0;}
	.st3{opacity:0.26;fill:#353535;}
</style>
<g>
	<g>
		<g>
			<path class="st0" d="M35.1,222.8c2.7,0,4.6,0.8,5.7,2.3c1.1,1.5,1.6,4.2,1.6,8.1s-0.7,6.6-2,8.1c-1.4,1.6-3.8,2.3-7.4,2.3
				c-1.1,0-3-0.1-5.6-0.3l-1.1-0.1v-28.8h3v9.8C31.3,223.2,33.2,222.8,35.1,222.8z M32.9,241c2.6,0,4.4-0.6,5.2-1.8
				c0.8-1.2,1.3-3.2,1.3-6c0-2.8-0.3-4.8-1-6c-0.7-1.1-1.9-1.7-3.6-1.7c-1.6,0-3.1,0.3-4.8,0.9l-0.8,0.3v14.1
				C31,240.9,32.2,241,32.9,241z"/>
			<path class="st0" d="M61,240.8l1.2-0.1l0.1,2.4c-3.1,0.4-5.7,0.6-7.8,0.6c-2.9,0-4.9-0.8-6.1-2.5c-1.2-1.7-1.8-4.3-1.8-7.8
				c0-7,2.8-10.6,8.4-10.6c2.7,0,4.7,0.8,6.1,2.3c1.3,1.5,2,3.9,2,7.1l-0.2,2.3H49.6c0,2.2,0.4,3.9,1.2,4.9c0.8,1.1,2.2,1.6,4.2,1.6
				C57,241,59,240.9,61,240.8z M60,232c0-2.5-0.4-4.2-1.2-5.2c-0.8-1-2.1-1.5-3.9-1.5c-1.8,0-3.1,0.5-4,1.6
				c-0.9,1.1-1.4,2.8-1.4,5.1H60z"/>
			<path class="st0" d="M81.8,229.2v10.3c0.1,1,0.9,1.6,2.3,1.8l-0.1,2.4c-2.1,0-3.7-0.5-4.8-1.6c-2.4,1.1-4.8,1.6-7.2,1.6
				c-1.8,0-3.3-0.5-4.2-1.6c-1-1-1.4-2.5-1.4-4.5c0-2,0.5-3.4,1.5-4.3c1-0.9,2.5-1.5,4.7-1.7l6.3-0.6v-1.7c0-1.4-0.3-2.3-0.9-2.9
				c-0.6-0.6-1.4-0.9-2.4-0.9c-2.1,0-4.4,0.1-6.7,0.4l-1.2,0.1l-0.1-2.3c2.9-0.6,5.6-0.9,7.8-0.9c2.3,0,3.9,0.5,5,1.6
				C81.3,225.4,81.8,227,81.8,229.2z M69.5,237.4c0,2.5,1,3.7,3.1,3.7c1.8,0,3.6-0.3,5.4-0.9l0.9-0.3v-6.6l-5.9,0.6
				c-1.2,0.1-2.1,0.5-2.6,1C69.7,235.4,69.5,236.3,69.5,237.4z"/>
			<path class="st0" d="M98.2,225.8h-6.4v9.6c0,2.3,0.2,3.8,0.5,4.5c0.3,0.7,1.1,1.1,2.4,1.1l3.6-0.2l0.2,2.5
				c-1.8,0.3-3.2,0.4-4.1,0.4c-2.1,0-3.5-0.5-4.3-1.5c-0.8-1-1.2-3-1.2-5.8v-10.6H86v-2.6h2.9V217h3v6.1h6.4V225.8z"/>
			<path class="st0" d="M108.2,225.5c-2.9,0-4.4,1-4.4,3.1c0,0.9,0.3,1.6,1,2c0.7,0.4,2.2,0.8,4.6,1.2c2.4,0.4,4.1,1,5.1,1.7
				c1,0.8,1.5,2.2,1.5,4.2c0,2.1-0.7,3.6-2,4.5c-1.3,1-3.3,1.4-5.8,1.4c-1.7,0-3.6-0.2-5.9-0.6l-1.2-0.2l0.2-2.6
				c3.1,0.5,5.4,0.7,6.9,0.7c1.6,0,2.7-0.2,3.6-0.7c0.8-0.5,1.2-1.3,1.2-2.5s-0.3-2-1-2.4c-0.7-0.4-2.2-0.8-4.6-1.2
				c-2.4-0.4-4-0.9-5-1.6c-1-0.7-1.5-2.1-1.5-4c0-2,0.7-3.4,2.1-4.3c1.4-0.9,3.1-1.4,5.2-1.4c1.6,0,3.7,0.2,6.1,0.6l1.1,0.2
				l-0.1,2.6C112.2,225.7,109.9,225.5,108.2,225.5z"/>
		</g>
	</g>
	<g>
		<path class="st1" d="M67.4,108.8H0V0h67.4c30,0,54.4,24.4,54.4,54.4v0C121.8,84.4,97.5,108.8,67.4,108.8z"/>
		<path class="st2" d="M87.8,185.4H0V76.6h87.8c30,0,54.4,24.4,54.4,54.4v0C142.2,161.1,117.8,185.4,87.8,185.4z"/>
		<path class="st3" d="M129.1,95.6c-10-11.6-24.8-19-41.3-19H0V127h81.4C110.3,127,130.5,97.3,129.1,95.6z"/>
		<path class="st0" d="M67.4,108.8c19.5,0,36.5-10.3,46.1-25.7c-1.3-0.7-2.6-1.3-4-1.9c-0.3-0.1-0.6-0.3-0.9-0.4
			c-1.3-0.5-2.6-1-4-1.5c-0.1,0-0.3-0.1-0.4-0.2c-0.2-0.1-0.5-0.1-0.7-0.2c-1.2-0.4-2.4-0.7-3.7-0.9c-0.2,0-0.4-0.1-0.6-0.1
			c-0.2-0.1-0.5-0.1-0.7-0.2c-1.2-0.2-2.5-0.4-3.7-0.6c-0.3,0-0.7-0.1-1-0.2c-0.3,0-0.7-0.1-1-0.1c-1.4-0.1-2.8-0.2-4.3-0.2
			c-0.2,0-0.5,0-0.7,0H0v32.1H67.4z"/>
	</g>
</g>
</svg>
